<svg xmlns="http://www.w3.org/2000/svg" xmlns:xlink="http://www.w3.org/1999/xlink" id="Layer_1" data-name="Layer 1" viewBox="0 0 224.2 290.76"><defs><style>.cls-1{fill:none}.cls-2{clip-path:url(#clip-path)}.cls-3{fill:#fff}</style><clipPath id="clip-path" transform="translate(-3.9 -9.62)"><rect width="500" height="500" x="-134" y="-95" class="cls-1"/></clipPath></defs><title>aelanplaceLogo</title><g class="cls-2"><path d="M209.87,259.87c-6.46,0-9.38-1.56-13.09-3.56-4.23-2.27-9-4.84-18.23-4.84s-14,2.58-18.22,4.85c-3.69,2-6.61,3.55-13.07,3.55s-9.38-1.56-13.08-3.55c-4.23-2.28-9-4.85-18.22-4.85s-14,2.58-18.22,4.85c-3.69,2-6.61,3.55-13.07,3.55s-9.37-1.56-13.06-3.55c-4.23-2.27-9-4.85-18.21-4.85s-14,2.58-18.22,4.85c-3.69,2-6.61,3.55-13.06,3.55S12.74,258.31,9,256.32L3.9,265.9c4.23,2.27,9,4.85,18.22,4.85s14-2.58,18.21-4.85c3.69-2,6.61-3.55,13.07-3.55s9.37,1.57,13.07,3.55c4.22,2.27,9,4.85,18.21,4.85s14-2.58,18.23-4.85c3.69-2,6.62-3.55,13.07-3.55s9.38,1.57,13.08,3.55a33.8,33.8,0,0,0,18.22,4.85c9.18,0,14-2.58,18.22-4.85,3.69-2,6.61-3.55,13.07-3.55s9.39,1.57,13.08,3.56c4.23,2.27,9,4.84,18.23,4.84s14-2.57,18.23-4.84L223,256.32c-3.7,2-6.62,3.56-13.09,3.56" class="cls-3" transform="translate(-3.9 -9.62)"/><path d="M209.87,289.5c-6.46,0-9.38-1.57-13.09-3.56-4.23-2.27-9-4.84-18.23-4.84s-14,2.58-18.22,4.85c-3.69,2-6.61,3.55-13.07,3.55s-9.38-1.57-13.08-3.55A33.81,33.81,0,0,0,116,281.1c-9.19,0-14,2.58-18.22,4.85-3.69,2-6.61,3.55-13.07,3.55s-9.37-1.57-13.06-3.55c-4.23-2.27-9-4.85-18.21-4.85s-14,2.58-18.22,4.85c-3.69,2-6.61,3.55-13.06,3.55S12.74,287.93,9,286L3.9,295.53c4.23,2.27,9,4.85,18.22,4.85s14-2.58,18.21-4.85c3.69-2,6.61-3.55,13.07-3.55s9.37,1.57,13.07,3.55c4.22,2.27,9,4.85,18.21,4.85s14-2.58,18.23-4.85c3.69-2,6.62-3.55,13.07-3.55s9.38,1.57,13.08,3.55a33.81,33.81,0,0,0,18.22,4.85c9.18,0,14-2.58,18.22-4.85,3.69-2,6.61-3.55,13.07-3.55s9.39,1.57,13.08,3.56c4.23,2.27,9,4.84,18.23,4.84s14-2.57,18.23-4.84L223,285.94c-3.7,2-6.62,3.56-13.09,3.56" class="cls-3" transform="translate(-3.9 -9.62)"/><path d="M187.88,215.37a43.23,43.23,0,0,1,12.41,4.8c1.09.58,2,1.06,2.89,1.45a94,94,0,0,0-74.25-56.86v10.95a83.19,83.19,0,0,1,59,39.66" class="cls-3" transform="translate(-3.9 -9.62)"/><path d="M44.25,215.34a83.11,83.11,0,0,1,58.82-39.61V164.77A93.9,93.9,0,0,0,29,221.53c.82-.38,1.68-.82,2.68-1.36a43.24,43.24,0,0,1,12.57-4.83" class="cls-3" transform="translate(-3.9 -9.62)"/><path d="M110.5,164.06v50.72a47.53,47.53,0,0,1,5.48-.33,48.21,48.21,0,0,1,5.55.34V87.46l7.41,7.41,47.5,47.5c.11-1.53.19-3.07.19-4.63a64,64,0,0,0-38.16-58.51h82.85c-1.16-1.34-2.37-2.67-3.65-4a74.27,74.27,0,0,0-78.33-17.12L187.66,9.83c-1.78-.13-3.57-.21-5.38-.21A74.23,74.23,0,0,0,116,50.36,74.23,74.23,0,0,0,49.76,9.62c-1.81,0-3.6.08-5.38.21L92.7,58.15A74.27,74.27,0,0,0,14.37,75.27c-1.28,1.28-2.48,2.61-3.65,4H93.57a64,64,0,0,0-38.15,58.51c0,1.56.07,3.1.19,4.63l47.5-47.5,7.41-7.41Z" class="cls-3" transform="translate(-3.9 -9.62)"/><path d="M40.34,236.28c3.69-2,6.61-3.55,13.07-3.55s9.37,1.57,13.07,3.55c4.23,2.27,9,4.85,18.21,4.85s14-2.58,18.22-4.85c3.69-2,6.62-3.55,13.07-3.55s9.38,1.57,13.08,3.55c4.23,2.27,9,4.85,18.22,4.85s14-2.58,18.22-4.85c3.69-2,6.61-3.55,13.07-3.55s9.39,1.57,13.09,3.55c4.23,2.27,9,4.85,18.23,4.85s14-2.58,18.23-4.85L223,226.69c-3.7,2-6.62,3.56-13.09,3.56a31.14,31.14,0,0,1-3.6-.21,24,24,0,0,1-9.48-3.35c-1.3-.7-2.68-1.42-4.2-2.09a33,33,0,0,0-14-2.75c-9.18,0-14,2.57-18.22,4.84-3.69,2-6.61,3.56-13.07,3.56s-9.38-1.57-13.08-3.56a52.05,52.05,0,0,0-5.27-2.56,31.15,31.15,0,0,0-7.41-1.91,41.66,41.66,0,0,0-11,0,31,31,0,0,0-7.41,1.9,50.51,50.51,0,0,0-5.33,2.58c-3.69,2-6.62,3.56-13.07,3.56s-9.37-1.57-13.07-3.56c-4.23-2.27-9-4.84-18.21-4.84a33,33,0,0,0-13.82,2.67c-1.6.7-3,1.45-4.39,2.17A23.89,23.89,0,0,1,25.84,230a29.85,29.85,0,0,1-3.72.23c-6.46,0-9.37-1.57-13.07-3.56L5.67,233l-1.77,3.3c4.24,2.27,9,4.85,18.22,4.85s14-2.58,18.21-4.85" class="cls-3" transform="translate(-3.9 -9.62)"/></g></svg>