<svg xmlns="http://www.w3.org/2000/svg" xmlns:xlink="http://www.w3.org/1999/xlink" x="0" y="0" enable-background="new 0 0 261.9 110.1" version="1.1" viewBox="0 0 261.9 110.1" xml:space="preserve"><style type="text/css">.st0{display:none}.st1{display:inline;stroke:#000;stroke-miterlimit:10}.st2{fill:#fff}</style><g id="Layer_2_1_" class="st0"><rect width="261.8" height="110" x=".1" class="st1"/></g><g id="Layer_1"><title>Asset 1</title><g id="Layer_2"><g id="Layer_2-2"><path d="M28.6,29.1l-6.2-16.6L16,29.1H28.6z M30.3,33.1H14.8l-3.9,10.3c-0.1,0.3-0.2,0.5-0.3,0.8 c0,0.2-0.1,0.5-0.1,0.7c0,0.6,0.3,1.1,0.8,1.3c1,0.5,2.1,0.8,3.2,0.9c0.7,0.1,1.1,0.6,1.1,1.4c0,0.4-0.1,0.8-0.1,1.2 c-1.3-0.1-2.7-0.2-4.2-0.3s-2.9-0.1-4.3-0.1c-1,0-2,0-3.1,0.1s-2.3,0.1-3.6,0.3C0,49.5,0,49.2,0,49v-0.6c0-0.9,0.3-1.4,1-1.5 c1.1-0.2,2.2-0.5,3.3-0.9c0.7-0.4,1.3-1,1.6-1.8L23.7,1.6c0.3-0.7,1-1.2,1.8-1.2c0.3,0,0.5,0,0.8,0.1c0.3,0,0.5,0.1,0.8,0.1 l17.8,43.9c0.3,0.8,0.9,1.4,1.7,1.7c0.9,0.4,1.8,0.6,2.7,0.8c0.7,0.1,1.2,0.7,1.1,1.5c0,0,0,0,0,0c0,0.4-0.1,0.9-0.1,1.3 c-1.5-0.1-3.2-0.2-4.7-0.3s-3-0.1-4.3-0.1c-0.7,0-1.5,0-2.5,0.1s-2,0.1-3,0.1s-2,0.1-3.1,0.1s-1.9,0.1-2.5,0.1 c-0.1-0.2-0.1-0.4-0.1-0.7v-0.6c0-0.4,0-0.7,0.3-1c0.1-0.2,0.3-0.3,0.6-0.4c1-0.2,1.9-0.5,2.9-0.9c0.6-0.2,0.9-0.8,0.9-1.4 c0-0.4-0.1-0.8-0.3-1.1L30.3,33.1z" class="st2"/><path d="M73.4,5.1v17.6h11.2c0.9,0.1,1.7-0.4,2.1-1.3c0.5-1.3,0.8-2.6,0.9-4c0-0.3,0.2-0.7,0.5-0.9 c0.3-0.1,0.7-0.2,1.1-0.2c0.2,0,0.5,0,0.7,0.1c0.2,0,0.5,0,0.7,0.1c-0.1,1.2-0.2,2.7-0.3,4.3s-0.1,3-0.1,4.1s0,2.1,0.1,3.4 s0.1,2.8,0.3,4.4c-0.2,0.2-0.5,0.2-0.7,0.2c-0.3,0-0.6,0.1-0.7,0.1c-0.9,0-1.5-0.4-1.5-1.1c-0.1-1.4-0.5-2.8-1.1-4.1 c-0.4-0.7-1.1-1.1-1.9-1.1H73.4v16.5c0,1,0.6,1.7,1.9,2c2.1,0.4,4.3,0.6,6.5,0.5h3.5c1.3-0.1,2.5-0.3,3.7-0.6 c1-0.4,1.9-0.9,2.7-1.7c0.8-0.7,1.5-1.6,2-2.5c0.6-0.9,1.2-2,1.8-3.2c0.1-0.4,0.5-0.5,1-0.5c0.3,0,0.6,0.1,0.9,0.3 c0.3,0.2,0.7,0.3,1,0.4c-0.1,0.4-0.2,0.7-0.3,1.1c-0.1,0.4-0.1,0.7-0.2,1.1c-0.3,0.6-0.5,1.2-0.6,1.8c-0.1,0.5-0.3,1-0.4,1.5 c-0.1,0.5-0.2,1-0.3,1.7s-0.3,1.2-0.4,1.8s-0.3,1-0.4,1.5s-0.2,0.7-0.3,0.9c-0.2,0.4-0.7,0.7-1.2,0.6c-0.4,0-1,0-1.7-0.1 s-1.5-0.1-2.4-0.1s-1.7-0.1-2.6-0.1c-0.8-0.1-1.5,0-2.3,0.2H68.5c-1.6-0.2-3.3-0.3-4.9-0.2c-1.8,0.1-3.5,0.2-4.9,0.3 c-0.1-0.2-0.1-0.4-0.3-0.8v-0.7c0.2-0.7,0.5-1.1,1-1.2c1.4-0.2,2.7-0.6,4-1.1c0.8-0.3,1.2-1.2,1-2V7c0.2-0.4,0.2-0.9,0-1.2 c-0.2-0.4-0.5-0.7-0.9-0.8c-0.5-0.3-1.1-0.5-1.6-0.6c-0.7-0.2-1.5-0.4-2.5-0.6c-0.5-0.1-1-1.3-1-1.3V1.7c0.1-0.2,0.3-0.4,0.3-0.7 c2.1,0.1,4,0.3,5.6,0.3c1.4,0,2.8,0.1,4.2,0.3h15.1c2.2-0.2,4.1-0.3,5.7-0.5C90.4,1,91.5,1,92.6,0.9c0.5,0,0.9,0.2,1.2,0.7 C94,2.3,94.1,3,94.2,3.8c0.1,1.1,0.3,2.2,0.5,3.3c0.1,0.8,0.3,1.6,0.5,2.4c0.2,0.8,0.5,1.7,0.9,2.8c-0.3,0.1-0.5,0.2-0.8,0.3 c-0.3,0.1-0.6,0.1-0.9,0.1c-0.5,0-0.9-0.2-1.2-0.7c-0.6-1.3-1.2-2.4-1.7-3.3c-0.5-0.8-1.2-1.6-1.9-2.2c-0.7-0.6-1.6-1-2.5-1.2 c-1.1-0.4-2.4-0.2-3.4,0.3H73.4V5.1z" class="st2"/><path d="M127.5,43.3c0,0.8,0.7,1.5,2,1.8s6.5,1.2,6.5,1.2h2.8l3.2-1.1c0.9-0.3,1.7-0.7,2.4-1.4 c0.7-0.7,1.4-1.6,1.9-2.5c0.6-1.2,1.2-2.4,1.7-3.7c0.1-0.4,0.5-0.6,1.1-0.6c0.3,0,0.6,0.1,0.9,0.3c0.3,0.1,0.7,0.3,1,0.4 c-0.4,1.5-0.7,3.3-1,5.1s-0.6,3.7-0.9,5.5c-0.1,0.6-0.2,1-0.5,1.1c-0.3,0.1-0.6,0.2-0.9,0.3c-0.4,0-0.9,0-1.7-0.1 s-1.5-0.1-2.4-0.1s-1.7-0.1-2.5-0.1s-1.6-0.1-2.2-0.1h-16.8l-4.9,0.2c-1.8,0.1-3.5,0.2-5,0.3c-0.1-0.2-0.1-0.4,0.3-0.8v-0.7 c-0.4-0.7-0.1-1.1,0.4-1.2c1.4-0.2,2.7-0.6,4-1.1c0.8-0.4,0.6-2,0.6-2V6.8c0-0.4,0-0.8-0.1-1.2c-0.1-0.3-0.3-0.6-0.6-0.8 c-0.4-0.3-0.8-0.5-1.3-0.6c-0.8-0.2-1.5-0.4-2.3-0.5c-0.5-0.1-0.7-0.5-0.7-1.2V1.8c0.2-0.2,0.4-0.5,0.5-0.8 c1.5,0.1,3.2,0.2,5,0.3s3.3,0.1,4.7,0.1c0.7,0,1.5,0,2.3-0.1s1.8-0.1,2.8-0.1s1.9-0.1,2.9-0.1s1.8-0.1,2.6-0.1 c0.1,0.3,0.1,0.5,0.1,0.8s0.1,0.5,0.1,0.7c0,0.7-0.3,1.1-0.7,1.2c-1.5,0.1-2.9,0.5-4.3,1.2c-0.7,0.5-1.1,1.3-0.9,2.2L127.5,43.3 L127.5,43.3z" class="st2"/><path d="M188.3,29.1L182,12.5l-6.4,16.6L188.3,29.1z M189.8,33.1h-15.5l-3.8,10.3c-0.1,0.3-0.2,0.5-0.3,0.8 c0,0.2-0.1,0.5-0.1,0.7c0,0.6,0.3,1.1,0.8,1.3c1,0.5,2,0.8,3.1,0.8c0.7,0.1,1.1,0.6,1.1,1.4c0,0.4-0.1,0.8-0.1,1.2 c-1.3-0.1-2.7-0.2-4.2-0.3s-2.9-0.1-4.3-0.1c-1,0-2,0-3.1,0.1s-2.3,0.1-3.6,0.3c-0.1-0.2-0.1-0.4-0.1-0.7v-0.6 c0-0.9,0.3-1.4,1-1.5c1.1-0.2,2.2-0.5,3.3-0.9c0.7-0.4,1.3-1,1.6-1.8l17.8-42.5c0.3-0.7,1-1.2,1.8-1.2c0.2,0,0.5,0,0.7,0.1 c0.3,0,0.5,0.1,0.8,0.1l17.8,43.9c0.3,0.8,0.9,1.4,1.7,1.7c0.9,0.4,1.8,0.6,2.7,0.8c0.7,0.1,1.2,0.7,1.1,1.5c0,0,0,0,0,0 c0,0.4-0.1,0.9-0.1,1.3c-1.6-0.1-3.2-0.2-4.6-0.3s-3-0.1-4.3-0.1c-0.7,0-1.6,0-2.5,0.1s-2,0.1-3,0.1s-2,0.1-3,0.1 s-1.9,0.1-2.5,0.1c-0.1-0.2-0.1-0.4-0.1-0.7v-0.6c0-0.4,0-0.7,0.3-1c0.1-0.2,0.3-0.3,0.6-0.4c1-0.2,1.9-0.5,2.9-0.9 c0.6-0.2,0.9-0.8,0.9-1.4c0-0.4-0.1-0.8-0.3-1.1L189.8,33.1z" class="st2"/><path d="M253,33.1V6.6c0.1-0.9-0.3-1.8-1.1-2.3c-1.2-0.6-2.5-0.9-3.9-1.1c-0.7-0.1-1.1-0.8-1-1.4V1.3 c0-0.2,0.1-0.5,0.1-0.7c1.2,0.1,2.3,0.2,3.4,0.3s2.4,0.1,4,0.1s2.8,0,3.9-0.1c1.1,0,2.2-0.1,3.3-0.3c0.1,0.2,0.1,0.5,0.1,0.7 s0.1,0.4,0.1,0.6c0,0.8-0.3,1.3-0.8,1.4c-1.1,0.1-2.2,0.4-3.2,1c-0.6,0.5-0.9,1.3-0.9,2.1v43.2c-0.2,0.1-0.5,0.1-1,0.1 s-0.8,0.1-0.9,0.1c-0.4,0-0.8-0.1-1.1-0.3c-0.5-0.3-0.9-0.6-1.2-1L224,11.9v31.6c0,0.4,0,0.9,0.1,1.3c0.1,0.4,0.3,0.7,0.6,0.8 c0.4,0.3,0.9,0.5,1.5,0.6c0.8,0.2,1.7,0.4,2.6,0.6c0.2,0.1,0.4,0.2,0.6,0.3c0.2,0.3,0.3,0.7,0.3,1.1c0,0.4-0.1,0.9-0.1,1.3 c-1.3-0.1-2.5-0.2-3.6-0.3s-2.4-0.1-3.9-0.1s-2.9,0.1-4.2,0.1s-2.6,0.2-3.7,0.3c-0.1-0.2-0.2-0.5-0.1-0.7V48c0-0.4,0.1-0.7,0.2-1 c0.2-0.2,0.4-0.3,0.6-0.3c1.2-0.1,2.3-0.5,3.4-1.1c0.6-0.5,0.9-1.2,0.8-2V6c0-0.7-0.2-1.3-0.8-1.7c-1-0.6-2.2-0.9-3.4-1 c-0.6-0.1-0.8-0.6-0.8-1.4V1.4c0-0.1,0-0.3,0.1-0.4l0.1-0.6c0.7,0.1,1.4,0.1,2,0.1s1.3,0.1,1.9,0.1c1.1,0.1,2.2,0.1,3.3,0.1 s2,0.1,2.7,0.1c0.9,0,1.9,0,2.8,0.2c0.4,0.1,0.8,0.4,1.2,0.7L253,33.1z" class="st2"/></g></g><path d="M23.3,85.3c2.6,0.1,5.1-0.7,7.1-2.2c1.8-1.5,2.7-4,2.7-7.6c0-3.2-0.7-5.8-2.1-7.5s-4-2.7-7.7-2.7h-2.2v20H23.3 z M21.1,89.3v14.3c0,1,0.6,2,1.5,2.4c1.7,0.7,3.4,1.1,5.2,1.2c0.7,0.1,1.2,0.8,1.1,1.5c0,0.4-0.1,0.9-0.1,1.3 c-1.5-0.1-3.4-0.2-5.7-0.3c-2.3-0.1-4.8-0.1-7.5-0.1c-1.9,0-3.7,0.1-5.5,0.1s-3.4,0.2-5,0.3c-0.1-0.2-0.2-0.4-0.1-0.7v-0.6 c0-0.8,0.3-1.4,0.9-1.5c1.1-0.2,2-0.4,2.7-0.6c0.6-0.1,1.1-0.4,1.6-0.7c0.3-0.2,0.6-0.5,0.7-0.8c0.1-0.4,0.2-0.9,0.2-1.3v-37 c0-0.9-0.3-1.7-1-2.2c-1.3-0.6-2.7-0.9-4.1-1.1c-0.2-0.1-0.4-0.3-0.6-0.4c-0.2-0.3-0.2-0.7-0.2-1.1v-0.7c0-0.2,0-0.4,0.1-0.6 c1.4,0.1,3,0.2,4.8,0.3c1.8,0.1,3.4,0.1,4.8,0.1h12.2c5.6,0,10,1.2,13.2,3.5c3.2,2.3,5,6.1,4.8,10c0,3.9-1.7,7.6-4.7,10.1 c-1.7,1.4-3.6,2.5-5.6,3.2c-2.4,0.8-5,1.2-7.6,1.2L21.1,89.3L21.1,89.3z" class="st2"/><path d="M72.1,102.6c-0.1,1.2,0.8,2.3,2,2.4c2.2,0.3,4.4,0.5,6.5,0.6h3c1.1,0,2.2-0.1,3.2-0.5c0.9-0.3,1.7-0.8,2.4-1.5 c0.8-0.8,1.4-1.7,1.9-2.7c0.6-1.3,1.2-2.6,1.7-3.9c0.2-0.5,0.6-0.7,1.1-0.7c0.3,0,0.6,0.1,0.9,0.3c0.3,0.1,0.7,0.3,1,0.5 c-0.4,1.7-0.7,3.5-1,5.5s-0.6,3.9-0.9,5.9c-0.1,0.7-0.2,1.1-0.5,1.2c-0.3,0.2-0.6,0.3-0.9,0.3c-0.4,0-0.9,0-1.7-0.1 s-1.5-0.1-2.4-0.1c-0.9-0.1-1.7-0.1-2.5-0.1c-0.9-0.1-1.6-0.1-2.2-0.1H66.9c-1.4,0-3,0.1-4.9,0.1c-1.9,0.1-3.5,0.2-5,0.3 c-0.1-0.3-0.2-0.6-0.1-0.9v-0.7c0-0.8,0.3-1.2,0.7-1.3c1.4-0.3,2.7-0.7,4-1.2c0.8-0.4,1.3-1.3,1.2-2.2v-37c0,0-0.2-0.9-0.3-1.2 c-0.1-0.3-0.3-0.6-0.6-0.9c-0.4-0.3-0.9-0.5-1.4-0.6c-0.8-0.2-1.6-0.4-2.5-0.5c-0.5-0.1-1.3-1.2-1.3-1.2v-0.6c0,0,0.6-0.6,0.7-0.8 c1.5,0.1,3.2,0.2,5,0.3c1.8,0.1,3.3,0.1,4.7,0.1c0.7,0,1.5,0,2.4-0.1c0.9-0.1,1.8-0.1,2.8-0.1s1.9-0.1,2.9-0.1 c1-0.1,1.9-0.1,2.6-0.1c0.1,0.3,0.1,0.5,0.1,0.8c0.1,0.3,0.1,0.5,0.1,0.7c0,0.7-0.3,1.1-0.7,1.2c-1.5,0.1-2.9,0.5-4.2,1.2 c-0.7,0.5-1.1,1.3-1.2,2.2v35.7H72.1z" class="st2"/><path d="M188.5,110c-3.7,0.1-7.4-0.6-10.8-1.9c-5.9-2.3-10.3-7.2-12.2-13.2c-1-3.2-1.5-6.5-1.5-9.8c0-3,0.5-6,1.5-8.8 c1-3,2.6-5.7,4.6-8c2.2-2.5,5-4.5,8.1-5.8c3.7-1.6,7.8-2.3,11.8-2.2c2.3,0,4.7,0.2,7,0.5c2.2,0.4,4.6,0.9,7.1,1.5 c0.1,1.3,0.3,3,0.6,5.1s0.7,4.1,1.2,6.1c-0.2,0.1-0.6,0.1-0.9,0.2c-0.3,0.1-0.6,0.1-0.9,0.1c-0.3,0-0.7-0.1-1-0.2 c-0.3-0.2-0.5-0.5-0.6-0.8c-0.5-1.4-1.1-2.8-1.9-4.1c-0.6-1.1-1.5-2-2.5-2.7c-1-0.7-2.1-1.2-3.3-1.4c-1.5-0.3-3-0.5-4.5-0.4 c-2.4-0.1-4.8,0.4-7,1.4c-2,0.9-3.7,2.2-5.1,3.9c-1.4,1.8-2.5,3.9-3.1,6.1c-0.7,2.6-1.1,5.4-1,8.1c0,3,0.4,6,1.3,8.9 c0.8,2.6,2,5,3.5,7.2c1.4,1.9,3.2,3.6,5.3,4.7c2.1,1.1,4.4,1.7,6.7,1.7c1.7,0,3.4-0.2,5.1-0.6c1.3-0.3,2.5-0.9,3.6-1.7 c1-0.8,1.9-1.8,2.6-2.9c0.8-1.3,1.4-2.7,2-4.2c0.1-0.4,0.4-0.7,0.7-0.9c0.3-0.2,0.7-0.3,1-0.3c0.3,0,0.6,0.1,0.9,0.1 c0.3,0.1,0.6,0.2,0.9,0.3c-0.3,0.8-0.6,1.8-0.9,2.8c-0.3,1.1-0.7,2.2-1,3.2c-0.4,1.1-0.7,2.2-0.9,3.3c-0.3,1.1-0.5,2.2-0.7,3.2 c-2.4,0.4-4.9,0.7-7.4,1C194.2,109.9,191.5,110,188.5,110z" class="st2"/><path d="M134.1,89.3l-6.2-16.6l-6.4,16.6H134.1z M135.6,93.3h-15.5l-3.8,10.3c-0.1,0.3-0.2,0.5-0.3,0.8 c0,0.2-0.1,0.5-0.1,0.7c0,0.6,0.3,1.1,0.8,1.3c1,0.5,2.1,0.8,3.2,0.9c0.7,0.1,1,0.6,1,1.4c0,0.4-0.1,0.8-0.1,1.2 c-1.3-0.1-2.7-0.2-4.2-0.3c-1.5-0.1-2.9-0.1-4.3-0.1c-1,0-2,0-3.1,0.1c-1.1,0.1-2.3,0.1-3.6,0.3c-0.1-0.2-0.1-0.4-0.1-0.7v-0.6 c0-0.9,0.3-1.4,1-1.5c1.1-0.2,2.2-0.5,3.3-0.9c0.7-0.4,1.3-1,1.6-1.8l17.8-42.6c0.3-0.7,1-1.2,1.8-1.2c0.2,0,0.5,0,0.7,0.1 c0.3,0,0.5,0.1,0.8,0.1l17.8,43.9c0.3,0.8,0.9,1.4,1.7,1.7c0.9,0.4,1.8,0.6,2.7,0.8c0.7,0.1,1.2,0.7,1.1,1.5c0,0,0,0,0,0 c0,0.4-0.1,0.9-0.1,1.3c-1.5-0.1-3.2-0.2-4.6-0.3c-1.5-0.1-3-0.1-4.3-0.1c-0.7,0-1.5,0-2.5,0.1c-1,0.1-2,0.1-3,0.1s-2,0.1-3,0.1 s-1.9,0.1-2.5,0.1c-0.1-0.2-0.1-0.4-0.1-0.7v-0.6c0-0.4,0-0.7,0.3-1c0.1-0.2,0.3-0.3,0.6-0.4c1-0.2,1.9-0.5,2.9-0.9 c0.6-0.2,0.9-0.8,0.9-1.4c0-0.4-0.1-0.8-0.3-1.1L135.6,93.3z" class="st2"/><path d="M233.1,65.3v17.6h11.2c0.9,0.1,1.7-0.4,2.1-1.3c0.5-1.3,0.8-2.6,0.9-4c0-0.3,0.2-0.7,0.5-0.9 c0.3-0.1,0.7-0.2,1.1-0.2c0.2,0,0.5,0,0.7,0.1c0.2,0,0.5,0,0.7,0.1c-0.1,1.2-0.2,2.7-0.3,4.3s-0.1,3-0.1,4.1s0,2.1,0.1,3.4 c0.1,1.3,0.1,2.8,0.3,4.4c-0.2,0.2-0.5,0.2-0.7,0.2c-0.3,0-0.6,0.1-0.7,0.1c-0.9,0-1.5-0.4-1.5-1.1c-0.1-1.4-0.5-2.8-1.1-4.1 c-0.4-0.7-1.1-1.1-1.9-1.1h-11.2v16.5c0,1,0.6,1.7,1.9,2c2.1,0.4,4.3,0.6,6.5,0.5h3.5c1.3-0.1,2.5-0.3,3.7-0.6 c1-0.4,1.9-0.9,2.7-1.7c0.8-0.7,1.5-1.6,2-2.5c0.6-0.9,1.2-2,1.8-3.2c0.1-0.4,0.5-0.5,1-0.5c0.3,0,0.6,0.1,0.9,0.3 c0.3,0.2,0.7,0.3,1,0.4c-0.1,0.4-0.2,0.7-0.3,1.1c-0.1,0.3-0.2,0.7-0.3,1.1c-0.3,0.6-0.5,1.2-0.6,1.8c-0.1,0.5-0.3,1-0.4,1.6 c-0.1,0.5-0.2,1-0.3,1.7c-0.1,0.6-0.3,1.2-0.4,1.8s-0.3,1.1-0.4,1.5s-0.2,0.7-0.3,0.9c-0.2,0.4-0.7,0.7-1.2,0.6c-0.4,0-1,0-1.7-0.1 c-0.7-0.1-1.5-0.1-2.4-0.1s-1.7-0.1-2.6-0.1c-0.8-0.1-1.5,0-2.3,0.2h-16.8c-1.6-0.2-3.3-0.3-4.9-0.2c-1.8,0.1-3.5,0.2-4.9,0.3 c-0.1-0.2-0.1-0.4-0.3-0.8v-0.7c0.2-0.7,0.5-1.1,1-1.2c1.4-0.2,2.8-0.5,4.1-1.1c0.8-0.3,1.2-1.2,1-2v-37c0.2-0.4,0.2-0.9,0-1.2 c-0.2-0.4-0.5-0.7-0.9-0.8c-0.5-0.3-1.1-0.5-1.6-0.6c-0.7-0.2-1.5-0.4-2.5-0.6c-0.5-0.1-1-1.3-1-1.3V62c0.1-0.2,0.3-0.4,0.3-0.7 c2.1,0.1,4,0.3,5.6,0.3c1.4,0,2.8,0.1,4.2,0.3h15.1c2.2-0.2,4.1-0.3,5.7-0.5c1.1-0.1,2.2-0.2,3.3-0.3c0.5,0,0.9,0.2,1.2,0.7 c0.2,0.7,0.3,1.4,0.4,2.2c0.1,1.1,0.3,2.2,0.5,3.3c0.1,0.8,0.3,1.6,0.5,2.4c0.2,0.8,0.5,1.7,0.9,2.9c-0.3,0.1-0.5,0.2-0.8,0.3 c-0.3,0.1-0.6,0.1-0.9,0.1c-0.5,0-0.9-0.2-1.2-0.7c-0.6-1.3-1.2-2.4-1.7-3.3c-0.5-0.8-1.2-1.6-1.9-2.2c-0.7-0.6-1.6-1-2.5-1.2 c-1.1-0.4-2.4-0.2-3.4,0.3h-10.2V65.3z" class="st2"/></g></svg>