<svg width="28" height="30" viewBox="0 0 28 30" fill="none" xmlns="http://www.w3.org/2000/svg">
<path d="M26.6932 20.9375L26.5696 20.5625C26.446 20.3125 26.3842 20.0625 26.2607 19.875C26.1371 19.625 26.0753 19.375 25.9517 19.1875L25.581 18.4375L25.5192 18.375C23.4801 13.875 21.3793 9.5625 19.2784 5.4375L19.2166 5.25C18.9695 4.8125 18.7223 4.375 18.5369 3.875L18.4134 3.75C18.1662 3.25 17.8573 2.75 17.4247 2.25C16.4979 1.0625 15.0767 0.375 13.5938 0.375C12.1108 0.375 10.7514 1 9.7628 2.1875C9.33027 2.75 9.02132 3.3125 8.71237 3.8125C8.46521 4.25 8.27984 4.75 8.03268 5.1875L7.97089 5.375C5.56109 10.0625 3.46024 14.3125 1.66834 18.3125L1.60655 18.375C1.48297 18.625 1.35939 18.875 1.2976 19.125C1.17402 19.375 1.11223 19.5625 0.988647 19.8125C0.865068 20.125 0.679699 20.5 0.556119 20.875C0.18538 22 0.0618009 23.0625 0.18538 24.125C0.494329 26.375 1.97728 28.25 4.07814 29.125C4.81961 29.4375 5.62288 29.625 6.48794 29.625C6.7351 29.625 7.04405 29.5625 7.2912 29.5625C8.27984 29.4375 9.33027 29.125 10.2571 28.5625C11.3693 27.9375 12.4198 27.0625 13.6556 25.75C14.8296 27 15.9418 27.875 17.054 28.5625C17.9808 29.125 18.9695 29.4375 20.0199 29.5625C20.2053 29.5625 20.5142 29.625 20.8232 29.625C21.6882 29.625 22.5533 29.4375 23.233 29.125C25.272 28.3125 26.755 26.375 27.1257 24.125C27.1875 23.1875 27.0639 22.125 26.6932 20.9375ZM10.9368 15.5C10.9986 15.125 11.1222 14.75 11.3075 14.4375C11.8019 13.6875 12.6051 13.3125 13.532 13.3125C14.5206 13.3125 15.3239 13.75 15.7564 14.4375C16.0036 14.75 16.1271 15.125 16.1889 15.5C16.2507 16 16.2507 16.5625 16.1271 17.125C15.8182 18.5 14.9531 20.1875 13.532 22.0625C12.1726 20.25 11.2458 18.5625 10.9368 17.125C10.875 16.5 10.875 16 10.9368 15.5ZM18.5369 17.75C18.7223 16.875 18.7841 16.0625 18.6605 15.1875C18.5369 14.4375 18.2898 13.6875 17.8573 13.125C16.9304 11.75 15.3857 10.9375 13.5938 10.9375C11.8636 10.9375 10.3189 11.75 9.33027 13.125C8.89774 13.75 8.65058 14.4375 8.527 15.1875C8.40342 16 8.46521 16.875 8.65058 17.75C9.08311 19.625 10.1953 21.75 11.9872 24.0625C10.9368 25.25 9.94816 26.0625 9.02132 26.625C8.34163 27 7.66194 27.25 6.98226 27.3125C6.30257 27.375 5.62288 27.3125 4.94319 27.0625C3.64561 26.5 2.71876 25.3125 2.53339 23.9375C2.4716 23.125 2.53339 22.5 2.84234 21.75C2.90413 21.5625 2.96592 21.375 3.0895 21.1875C3.15129 21.0625 3.15129 21 3.21308 20.875C3.39845 20.4375 3.64561 19.9375 3.83098 19.4375V19.375C5.93183 14.875 8.03268 10.5 10.0717 6.5L10.1335 6.3125C10.2571 6.125 10.3807 5.875 10.5043 5.625C10.6279 5.375 10.7514 5.1875 10.875 4.9375C11.1222 4.4375 11.3693 4.0625 11.6165 3.75C12.1726 3.125 12.8523 2.8125 13.6556 2.8125C14.4588 2.8125 15.1385 3.125 15.6946 3.75C15.9418 4.0625 16.1889 4.4375 16.4361 4.9375C16.5597 5.125 16.6833 5.375 16.745 5.625C16.8686 5.875 16.9922 6.0625 17.054 6.25L17.1158 6.4375C19.2784 10.6875 21.3175 15 23.2948 19.25L23.3565 19.375C23.4801 19.625 23.5419 19.8125 23.6655 20.0625C23.7891 20.3125 23.9127 20.5625 23.9744 20.75C24.0362 20.875 24.0362 20.9375 24.098 21.0625C24.2216 21.25 24.2834 21.4375 24.3452 21.625C24.5923 22.375 24.6541 23.0625 24.5306 23.6875C24.3452 25.0625 23.4183 26.25 22.1208 26.8125C21.5029 27.0625 20.8232 27.1875 20.1435 27.0625C19.4638 27 18.7841 26.75 18.1044 26.375C17.1776 25.875 16.2507 25.0625 15.1385 23.8125C16.9922 21.75 18.1044 19.625 18.5369 17.75Z" fill="#444444"/>
</svg>
