<svg width="30" height="30" viewBox="0 0 30 30" fill="none" xmlns="http://www.w3.org/2000/svg">
<path d="M24.1072 0.428467C25.6124 0.428467 26.8994 0.962879 27.9682 2.0317C29.037 3.10053 29.5714 4.38754 29.5714 5.89275V24.107C29.5714 25.6122 29.037 26.8993 27.9682 27.9681C26.8994 29.0369 25.6124 29.5713 24.1072 29.5713H20.5402V18.2823H24.3159L24.8851 13.8805H20.5402V11.0724C20.5402 10.3641 20.6888 9.83286 20.9861 9.47869C21.2833 9.12452 21.862 8.94744 22.7221 8.94744L25.0368 8.92847V5.00101C24.24 4.88717 23.1142 4.83025 21.6596 4.83025C19.9394 4.83025 18.5638 5.33621 17.5329 6.34811C16.5021 7.36002 15.9866 8.78933 15.9866 10.6361V13.8805H12.192V18.2823H15.9866V29.5713H5.89287C4.38767 29.5713 3.10065 29.0369 2.03183 27.9681C0.963001 26.8993 0.428589 25.6122 0.428589 24.107V5.89275C0.428589 4.38754 0.963001 3.10053 2.03183 2.0317C3.10065 0.962879 4.38767 0.428467 5.89287 0.428467H24.1072Z" fill="#444444"/>
</svg>
