<svg height="499pt" viewBox="0 -57 499.312 499" width="499pt" xmlns="http://www.w3.org/2000/svg"><path d="m443.3125 48.21875h-56.472656c-2.246094-2.863281-4.632813-5.664062-7.246094-8.28125-11.769531-11.773438-26.019531-19.808594-40.121094-22.625-1.304687-.261719-2.578125-.414062-3.847656-.582031-1.402344-2.710938-3.160156-5.222657-5.378906-7.449219-15.605469-15.605469-44.933594-10.734375-66.773438 11.097656-9.136718 9.144532-15.257812 19.589844-18.191406 29.800782-10.21875 2.933593-20.664062 9.054687-29.808594 18.199218-1.058594 1.054688-2.03125 2.144532-3.007812 3.230469-7.449219-4.792969-16.097656-7.390625-25.152344-7.390625-12.457031 0-24.167969 4.847656-32.96875 13.65625l-154.34375 154.34375 115.3125 115.3125 154.34375-154.34375c8.679688-8.679688 13.65625-20.695312 13.65625-32.96875s-4.976562-24.289062-13.65625-32.96875l-.9375-.9375c.816406-.75 1.65625-1.460938 2.441406-2.246094 9.152344-9.152344 15.273438-19.617187 18.207032-29.839844 4.367187-1.257812 8.769531-3.0625 13.097656-5.480468 3.496094 5.550781 7.6875 10.871094 12.574218 15.761718 2.664063 2.664063 5.449219 5.039063 8.28125 7.269532v20.25c0 24.871094 16.703126 47.015625 40.617188 53.839844l15.375 4.382812v174.25l32 21.335938 32-21.335938v-15.59375l-12.6875-12.6875 16-16-16-16 12.6875-12.6875v-101.28125l15.382812-4.390625c23.914063-6.824219 40.617188-28.96875 40.617188-53.839844v-27.800781c0-30.871094-25.121094-56-56-56zm-134.503906 15.441406c-.207032-.808594-.550782-1.617187-.710938-2.425781-1.976562-9.855469-.21875-18.144531 4.941406-23.296875 2.695313-2.695312 6.21875-4.335938 10.199219-5.136719.019531 9.410157-5.117187 21.089844-14.429687 30.859375zm-286.183594 168.558594 12.6875-12.6875 92.6875 92.6875-12.6875 12.6875zm235.71875-50.34375-119.03125 119.03125-92.6875-92.6875 119.03125-119.03125c9.777344-9.769531 25.640625-11.183594 37.320312-4.449219-10.457031 18.503907-10.535156 38.472657 1.40625 50.414063l11.3125-11.308594c-5.992187-6-5.582031-17.042969-.246093-28.175781l42.894531 42.894531c5.695312 5.703125 8.96875 13.589844 8.96875 21.65625 0 8.0625-3.273438 15.953125-8.96875 21.65625zm1.503906-69.136719c-.800781.800781-1.703125 1.40625-2.535156 2.160157l-32.71875-32.71875c.742188-.824219 1.398438-1.6875 2.199219-2.488282 5.183593-5.183594 11-9.089844 16.75-11.730468.816406 7.378906 3.6875 14.042968 8.839843 19.203124 5.152344 5.148438 11.847657 7.941407 19.234376 8.757813-2.648438 5.777344-6.570313 11.617187-11.769532 16.816406zm-.433594-48.417969c4.601563.144532 8.664063 1.425782 11.515626 4.273438 2.847656 2.855469 4.132812 6.921875 4.269531 11.519531-4.597657-.144531-8.664063-1.414062-11.511719-4.269531-2.847656-2.859375-4.128906-6.921875-4.273438-11.523438zm31.675782 12.152344c-.816406-7.375-3.699219-14.039062-8.84375-19.191406-5.148438-5.152344-11.804688-8.023438-19.183594-8.839844 2.640625-5.75 6.546875-11.566406 11.722656-16.75 13.351563-13.359375 30.832032-18.777344 40.824219-13.441406-5.28125 1.726562-10 4.488281-13.882813 8.375-9.0625 9.066406-12.375 22.472656-9.320312 37.753906.664062 3.335938 1.648438 6.671875 2.875 9.984375-1.394531.800781-2.792969 1.472657-4.191406 2.109375zm28.0625-.414062c12.925781-12.929688 19.847656-28.472656 20.152344-42.257813 9.09375 2.472657 18.75 7.9375 27.253906 15.9375-20.636719 4.832031-36.894532 21.089844-41.726563 41.726563-3.609375-3.824219-6.726562-7.878906-9.296875-12.085938 1.226563-1.074218 2.441406-2.136718 3.617188-3.320312zm164.160156 55.960937c0 17.765625-11.929688 33.574219-29.007812 38.453125l-26.992188 7.714844v106.71875l-19.3125 19.3125 16 16-16 16 19.3125 19.3125-16 11.070312-16-10.664062v-177.75l-26.992188-7.722656c-17.082031-4.871094-29.007812-20.6875-29.007812-38.445313v-10.167969c5.34375 2.542969 10.71875 4.292969 16 5.335938v9.03125c0 13.230469 10.765625 24 24 24h64c13.230469 0 24-10.769531 24-24v-32c0-13.234375-10.769531-24-24-24h-64c-13.234375 0-24 10.765625-24 24v6.414062c-5.234375-1.421874-10.632812-3.847656-15.929688-7.160156.417969-21.703125 18.128907-39.253906 39.929688-39.253906h64c22.054688 0 40 17.945312 40 40zm-112-4.175781c8.296875-1.027344 15.792969-4.234375 21.589844-10.035156l-5.65625-5.65625 5.664062 5.65625c5.578125-5.582032 9.011719-13.070313 10.050782-21.589844h40.351562c4.40625 0 8 3.582031 8 8v32c0 4.414062-3.59375 8-8 8h-64c-4.410156 0-8-3.585938-8-8zm10.273438-21.34375c-2.714844 2.71875-6.257813 4.375-10.273438 5.167969v-7.449219c0-4.417969 3.589844-8 8-8h7.40625c-.695312 3.589844-2.125 7.273438-5.132812 10.28125zm0 0"/><path d="m72 200.21875 75.3125 75.3125 75.3125-75.3125-75.3125-75.3125zm75.3125 52.6875-52.6875-52.6875 52.6875-52.6875 52.6875 52.6875zm0 0"/></svg>